<mxfile host="app.diagrams.net" agent="Mozilla/5.0 (Windows NT 10.0; Win64; x64) AppleWebKit/537.36 (KHTML, like Gecko) Chrome/130.0.0.0 Safari/537.36 Edg/130.0.0.0" version="24.7.7">
  <diagram name="Page-1" id="MzyXKgZAgGTnHWj18XyG">
    <mxGraphModel dx="1379" dy="752" grid="1" gridSize="10" guides="1" tooltips="1" connect="1" arrows="1" fold="1" page="1" pageScale="1" pageWidth="827" pageHeight="1169" math="0" shadow="0">
      <root>
        <mxCell id="0" />
        <mxCell id="1" parent="0" />
        <mxCell id="E8KfdpFAvdnHgDXKCaQg-6" value="" style="rounded=0;whiteSpace=wrap;html=1;fillColor=#d5e8d4;gradientColor=#97d077;strokeColor=#82b366;" parent="1" vertex="1">
          <mxGeometry x="120" y="60" width="670" height="800" as="geometry" />
        </mxCell>
        <mxCell id="E8KfdpFAvdnHgDXKCaQg-12" value="Zoo Arcadia" style="text;strokeColor=none;fillColor=none;html=1;fontSize=24;fontStyle=1;verticalAlign=middle;align=center;" parent="1" vertex="1">
          <mxGeometry x="600" y="50" width="180" height="40" as="geometry" />
        </mxCell>
        <mxCell id="E8KfdpFAvdnHgDXKCaQg-13" value="Page&amp;nbsp;&lt;div&gt;d&#39;accueil&lt;/div&gt;" style="ellipse;whiteSpace=wrap;html=1;" parent="1" vertex="1">
          <mxGeometry x="210" y="710" width="80" height="60" as="geometry" />
        </mxCell>
        <mxCell id="E8KfdpFAvdnHgDXKCaQg-21" style="rounded=0;orthogonalLoop=1;jettySize=auto;html=1;entryX=1;entryY=1;entryDx=0;entryDy=0;startArrow=classic;startFill=1;" parent="1" source="E8KfdpFAvdnHgDXKCaQg-16" target="E8KfdpFAvdnHgDXKCaQg-13" edge="1">
          <mxGeometry relative="1" as="geometry" />
        </mxCell>
        <mxCell id="E8KfdpFAvdnHgDXKCaQg-22" style="rounded=0;orthogonalLoop=1;jettySize=auto;html=1;" parent="1" source="E8KfdpFAvdnHgDXKCaQg-16" target="E8KfdpFAvdnHgDXKCaQg-19" edge="1">
          <mxGeometry relative="1" as="geometry" />
        </mxCell>
        <mxCell id="E8KfdpFAvdnHgDXKCaQg-23" style="rounded=0;orthogonalLoop=1;jettySize=auto;html=1;" parent="1" source="E8KfdpFAvdnHgDXKCaQg-16" target="E8KfdpFAvdnHgDXKCaQg-18" edge="1">
          <mxGeometry relative="1" as="geometry" />
        </mxCell>
        <mxCell id="E8KfdpFAvdnHgDXKCaQg-24" style="rounded=0;orthogonalLoop=1;jettySize=auto;html=1;entryX=0.5;entryY=1;entryDx=0;entryDy=0;" parent="1" source="E8KfdpFAvdnHgDXKCaQg-16" target="E8KfdpFAvdnHgDXKCaQg-17" edge="1">
          <mxGeometry relative="1" as="geometry" />
        </mxCell>
        <mxCell id="E8KfdpFAvdnHgDXKCaQg-16" value="Menu" style="ellipse;whiteSpace=wrap;html=1;" parent="1" vertex="1">
          <mxGeometry x="470" y="730" width="80" height="60" as="geometry" />
        </mxCell>
        <mxCell id="E8KfdpFAvdnHgDXKCaQg-17" value="Contact" style="ellipse;whiteSpace=wrap;html=1;" parent="1" vertex="1">
          <mxGeometry x="670" y="660" width="80" height="60" as="geometry" />
        </mxCell>
        <mxCell id="-n6H17Al6HhcsNovNW5C-14" value="" style="edgeStyle=orthogonalEdgeStyle;rounded=0;orthogonalLoop=1;jettySize=auto;html=1;entryX=0.963;entryY=0.267;entryDx=0;entryDy=0;entryPerimeter=0;" edge="1" parent="1" source="E8KfdpFAvdnHgDXKCaQg-18" target="E8KfdpFAvdnHgDXKCaQg-53">
          <mxGeometry relative="1" as="geometry" />
        </mxCell>
        <mxCell id="E8KfdpFAvdnHgDXKCaQg-18" value="Avis" style="ellipse;whiteSpace=wrap;html=1;" parent="1" vertex="1">
          <mxGeometry x="480" y="570" width="80" height="60" as="geometry" />
        </mxCell>
        <mxCell id="E8KfdpFAvdnHgDXKCaQg-29" style="rounded=0;orthogonalLoop=1;jettySize=auto;html=1;" parent="1" source="E8KfdpFAvdnHgDXKCaQg-19" target="E8KfdpFAvdnHgDXKCaQg-26" edge="1">
          <mxGeometry relative="1" as="geometry" />
        </mxCell>
        <mxCell id="E8KfdpFAvdnHgDXKCaQg-30" style="rounded=0;orthogonalLoop=1;jettySize=auto;html=1;" parent="1" source="E8KfdpFAvdnHgDXKCaQg-19" target="E8KfdpFAvdnHgDXKCaQg-25" edge="1">
          <mxGeometry relative="1" as="geometry" />
        </mxCell>
        <mxCell id="E8KfdpFAvdnHgDXKCaQg-19" value="Tous les services" style="ellipse;whiteSpace=wrap;html=1;" parent="1" vertex="1">
          <mxGeometry x="630" y="470" width="80" height="60" as="geometry" />
        </mxCell>
        <mxCell id="E8KfdpFAvdnHgDXKCaQg-20" value="connexion" style="ellipse;whiteSpace=wrap;html=1;" parent="1" vertex="1">
          <mxGeometry x="194" y="300" width="140" height="100" as="geometry" />
        </mxCell>
        <mxCell id="E8KfdpFAvdnHgDXKCaQg-25" value="restaurant" style="ellipse;whiteSpace=wrap;html=1;" parent="1" vertex="1">
          <mxGeometry x="700" y="270" width="80" height="60" as="geometry" />
        </mxCell>
        <mxCell id="E8KfdpFAvdnHgDXKCaQg-26" value="Petit train" style="ellipse;whiteSpace=wrap;html=1;" parent="1" vertex="1">
          <mxGeometry x="670" y="90" width="80" height="60" as="geometry" />
        </mxCell>
        <mxCell id="E8KfdpFAvdnHgDXKCaQg-27" value="Visites Habitats" style="ellipse;whiteSpace=wrap;html=1;" parent="1" vertex="1">
          <mxGeometry x="540" y="110" width="80" height="60" as="geometry" />
        </mxCell>
        <mxCell id="E8KfdpFAvdnHgDXKCaQg-31" value="Animaux" style="ellipse;whiteSpace=wrap;html=1;" parent="1" vertex="1">
          <mxGeometry x="440" y="300" width="80" height="60" as="geometry" />
        </mxCell>
        <mxCell id="E8KfdpFAvdnHgDXKCaQg-32" style="rounded=0;orthogonalLoop=1;jettySize=auto;html=1;" parent="1" source="E8KfdpFAvdnHgDXKCaQg-27" target="E8KfdpFAvdnHgDXKCaQg-31" edge="1">
          <mxGeometry relative="1" as="geometry">
            <mxPoint x="600" y="540" as="targetPoint" />
          </mxGeometry>
        </mxCell>
        <mxCell id="E8KfdpFAvdnHgDXKCaQg-33" value="Creation compte" style="ellipse;whiteSpace=wrap;html=1;" parent="1" vertex="1">
          <mxGeometry x="360" y="180" width="80" height="60" as="geometry" />
        </mxCell>
        <mxCell id="E8KfdpFAvdnHgDXKCaQg-51" style="rounded=0;orthogonalLoop=1;jettySize=auto;html=1;exitX=1;exitY=0;exitDx=0;exitDy=0;" parent="1" source="E8KfdpFAvdnHgDXKCaQg-20" target="E8KfdpFAvdnHgDXKCaQg-33" edge="1">
          <mxGeometry relative="1" as="geometry" />
        </mxCell>
        <mxCell id="E8KfdpFAvdnHgDXKCaQg-52" style="rounded=0;orthogonalLoop=1;jettySize=auto;html=1;exitX=0.443;exitY=0.02;exitDx=0;exitDy=0;exitPerimeter=0;" parent="1" source="E8KfdpFAvdnHgDXKCaQg-20" target="E8KfdpFAvdnHgDXKCaQg-49" edge="1">
          <mxGeometry relative="1" as="geometry" />
        </mxCell>
        <mxCell id="E8KfdpFAvdnHgDXKCaQg-64" style="edgeStyle=orthogonalEdgeStyle;rounded=0;orthogonalLoop=1;jettySize=auto;html=1;shape=flexArrow;dashed=1;" parent="1" edge="1">
          <mxGeometry relative="1" as="geometry">
            <mxPoint x="55" y="680" as="sourcePoint" />
            <mxPoint x="55" y="590" as="targetPoint" />
          </mxGeometry>
        </mxCell>
        <mxCell id="E8KfdpFAvdnHgDXKCaQg-4" value="Administrateur" style="shape=umlActor;verticalLabelPosition=bottom;verticalAlign=top;html=1;outlineConnect=0;" parent="1" vertex="1">
          <mxGeometry x="40" y="110" width="30" height="60" as="geometry" />
        </mxCell>
        <mxCell id="E8KfdpFAvdnHgDXKCaQg-58" style="rounded=0;orthogonalLoop=1;jettySize=auto;html=1;exitX=0.914;exitY=0.78;exitDx=0;exitDy=0;exitPerimeter=0;" parent="1" source="E8KfdpFAvdnHgDXKCaQg-20" target="E8KfdpFAvdnHgDXKCaQg-55" edge="1">
          <mxGeometry relative="1" as="geometry">
            <Array as="points" />
          </mxGeometry>
        </mxCell>
        <mxCell id="E8KfdpFAvdnHgDXKCaQg-65" style="edgeStyle=orthogonalEdgeStyle;rounded=0;orthogonalLoop=1;jettySize=auto;html=1;dashed=1;shape=flexArrow;" parent="1" edge="1">
          <mxGeometry relative="1" as="geometry">
            <mxPoint x="55" y="480" as="sourcePoint" />
            <mxPoint x="55" y="410" as="targetPoint" />
          </mxGeometry>
        </mxCell>
        <mxCell id="E8KfdpFAvdnHgDXKCaQg-3" value="Vétérinaires" style="shape=umlActor;verticalLabelPosition=bottom;verticalAlign=top;html=1;outlineConnect=0;" parent="1" vertex="1">
          <mxGeometry x="40" y="290" width="30" height="60" as="geometry" />
        </mxCell>
        <mxCell id="E8KfdpFAvdnHgDXKCaQg-57" style="rounded=0;orthogonalLoop=1;jettySize=auto;html=1;entryX=0;entryY=0.5;entryDx=0;entryDy=0;exitX=0;exitY=0;exitDx=0;exitDy=0;" parent="1" source="E8KfdpFAvdnHgDXKCaQg-59" target="E8KfdpFAvdnHgDXKCaQg-53" edge="1">
          <mxGeometry relative="1" as="geometry" />
        </mxCell>
        <mxCell id="E8KfdpFAvdnHgDXKCaQg-66" style="edgeStyle=orthogonalEdgeStyle;rounded=0;orthogonalLoop=1;jettySize=auto;html=1;shape=flexArrow;dashed=1;" parent="1" edge="1">
          <mxGeometry relative="1" as="geometry">
            <mxPoint x="55" y="280" as="sourcePoint" />
            <mxPoint x="55" y="210" as="targetPoint" />
          </mxGeometry>
        </mxCell>
        <mxCell id="E8KfdpFAvdnHgDXKCaQg-2" value="Employés" style="shape=umlActor;verticalLabelPosition=bottom;verticalAlign=top;html=1;outlineConnect=0;" parent="1" vertex="1">
          <mxGeometry x="40" y="490" width="30" height="60" as="geometry" />
        </mxCell>
        <mxCell id="E8KfdpFAvdnHgDXKCaQg-43" style="rounded=0;orthogonalLoop=1;jettySize=auto;html=1;" parent="1" source="E8KfdpFAvdnHgDXKCaQg-1" target="E8KfdpFAvdnHgDXKCaQg-13" edge="1">
          <mxGeometry relative="1" as="geometry" />
        </mxCell>
        <mxCell id="E8KfdpFAvdnHgDXKCaQg-1" value="Visiteurs" style="shape=umlActor;verticalLabelPosition=bottom;verticalAlign=top;html=1;outlineConnect=0;" parent="1" vertex="1">
          <mxGeometry x="40" y="700" width="30" height="60" as="geometry" />
        </mxCell>
        <mxCell id="E8KfdpFAvdnHgDXKCaQg-49" value="Dashboard" style="ellipse;whiteSpace=wrap;html=1;" parent="1" vertex="1">
          <mxGeometry x="240" y="150" width="80" height="60" as="geometry" />
        </mxCell>
        <mxCell id="E8KfdpFAvdnHgDXKCaQg-60" style="rounded=0;orthogonalLoop=1;jettySize=auto;html=1;entryX=0.5;entryY=0;entryDx=0;entryDy=0;exitX=0.264;exitY=0.95;exitDx=0;exitDy=0;exitPerimeter=0;" parent="1" source="E8KfdpFAvdnHgDXKCaQg-20" target="E8KfdpFAvdnHgDXKCaQg-59" edge="1">
          <mxGeometry relative="1" as="geometry" />
        </mxCell>
        <mxCell id="E8KfdpFAvdnHgDXKCaQg-53" value="Valider les avis" style="ellipse;whiteSpace=wrap;html=1;" parent="1" vertex="1">
          <mxGeometry x="334" y="620" width="80" height="60" as="geometry" />
        </mxCell>
        <mxCell id="E8KfdpFAvdnHgDXKCaQg-67" style="rounded=0;orthogonalLoop=1;jettySize=auto;html=1;" parent="1" source="E8KfdpFAvdnHgDXKCaQg-55" target="E8KfdpFAvdnHgDXKCaQg-63" edge="1">
          <mxGeometry relative="1" as="geometry" />
        </mxCell>
        <mxCell id="E8KfdpFAvdnHgDXKCaQg-55" value="Espace Véterinaire" style="ellipse;whiteSpace=wrap;html=1;" parent="1" vertex="1">
          <mxGeometry x="290" y="420" width="80" height="60" as="geometry" />
        </mxCell>
        <mxCell id="E8KfdpFAvdnHgDXKCaQg-61" style="rounded=0;orthogonalLoop=1;jettySize=auto;html=1;dashed=1;" parent="1" source="E8KfdpFAvdnHgDXKCaQg-73" target="E8KfdpFAvdnHgDXKCaQg-19" edge="1">
          <mxGeometry relative="1" as="geometry" />
        </mxCell>
        <mxCell id="E8KfdpFAvdnHgDXKCaQg-62" value="&amp;lt;&amp;lt;Extend&amp;gt;&amp;gt;" style="edgeLabel;html=1;align=center;verticalAlign=middle;resizable=0;points=[];" parent="E8KfdpFAvdnHgDXKCaQg-61" vertex="1" connectable="0">
          <mxGeometry x="0.017" y="1" relative="1" as="geometry">
            <mxPoint x="75" y="51" as="offset" />
          </mxGeometry>
        </mxCell>
        <mxCell id="-n6H17Al6HhcsNovNW5C-13" value="&amp;lt;&amp;lt;include&amp;gt;&amp;gt;" style="edgeLabel;html=1;align=center;verticalAlign=middle;resizable=0;points=[];" vertex="1" connectable="0" parent="E8KfdpFAvdnHgDXKCaQg-61">
          <mxGeometry x="-0.121" y="1" relative="1" as="geometry">
            <mxPoint as="offset" />
          </mxGeometry>
        </mxCell>
        <mxCell id="E8KfdpFAvdnHgDXKCaQg-74" style="rounded=0;orthogonalLoop=1;jettySize=auto;html=1;entryX=0;entryY=0.5;entryDx=0;entryDy=0;" parent="1" source="E8KfdpFAvdnHgDXKCaQg-59" target="E8KfdpFAvdnHgDXKCaQg-73" edge="1">
          <mxGeometry relative="1" as="geometry" />
        </mxCell>
        <mxCell id="E8KfdpFAvdnHgDXKCaQg-59" value="Espace Employé" style="ellipse;whiteSpace=wrap;html=1;" parent="1" vertex="1">
          <mxGeometry x="210" y="510" width="80" height="60" as="geometry" />
        </mxCell>
        <mxCell id="E8KfdpFAvdnHgDXKCaQg-68" style="rounded=0;orthogonalLoop=1;jettySize=auto;html=1;dashed=1;" parent="1" source="E8KfdpFAvdnHgDXKCaQg-63" target="E8KfdpFAvdnHgDXKCaQg-31" edge="1">
          <mxGeometry relative="1" as="geometry" />
        </mxCell>
        <mxCell id="E8KfdpFAvdnHgDXKCaQg-69" value="&amp;lt;&amp;lt;Extend&amp;gt;&amp;gt;" style="edgeLabel;html=1;align=center;verticalAlign=middle;resizable=0;points=[];" parent="E8KfdpFAvdnHgDXKCaQg-68" vertex="1" connectable="0">
          <mxGeometry x="-0.0842" y="1" relative="1" as="geometry">
            <mxPoint as="offset" />
          </mxGeometry>
        </mxCell>
        <mxCell id="E8KfdpFAvdnHgDXKCaQg-63" value="Gestion animaux" style="ellipse;whiteSpace=wrap;html=1;" parent="1" vertex="1">
          <mxGeometry x="440" y="420" width="80" height="60" as="geometry" />
        </mxCell>
        <mxCell id="E8KfdpFAvdnHgDXKCaQg-73" value="Modifier les services" style="ellipse;whiteSpace=wrap;html=1;" parent="1" vertex="1">
          <mxGeometry x="374" y="530" width="80" height="60" as="geometry" />
        </mxCell>
        <mxCell id="-n6H17Al6HhcsNovNW5C-8" value="" style="endArrow=classic;html=1;rounded=0;exitX=0.288;exitY=0.1;exitDx=0;exitDy=0;exitPerimeter=0;" edge="1" parent="1" source="E8KfdpFAvdnHgDXKCaQg-19" target="E8KfdpFAvdnHgDXKCaQg-27">
          <mxGeometry width="50" height="50" relative="1" as="geometry">
            <mxPoint x="680" y="470" as="sourcePoint" />
            <mxPoint x="730" y="420" as="targetPoint" />
          </mxGeometry>
        </mxCell>
        <mxCell id="-n6H17Al6HhcsNovNW5C-10" value="" style="endArrow=classic;html=1;rounded=0;entryX=0.271;entryY=0.07;entryDx=0;entryDy=0;entryPerimeter=0;" edge="1" parent="1" source="E8KfdpFAvdnHgDXKCaQg-4" target="E8KfdpFAvdnHgDXKCaQg-20">
          <mxGeometry width="50" height="50" relative="1" as="geometry">
            <mxPoint x="680" y="470" as="sourcePoint" />
            <mxPoint x="730" y="420" as="targetPoint" />
          </mxGeometry>
        </mxCell>
        <mxCell id="-n6H17Al6HhcsNovNW5C-11" value="" style="endArrow=classic;html=1;rounded=0;" edge="1" parent="1">
          <mxGeometry width="50" height="50" relative="1" as="geometry">
            <mxPoint x="80" y="320" as="sourcePoint" />
            <mxPoint x="200" y="340" as="targetPoint" />
          </mxGeometry>
        </mxCell>
        <mxCell id="-n6H17Al6HhcsNovNW5C-12" value="" style="endArrow=classic;html=1;rounded=0;entryX=0;entryY=1;entryDx=0;entryDy=0;" edge="1" parent="1" source="E8KfdpFAvdnHgDXKCaQg-2" target="E8KfdpFAvdnHgDXKCaQg-20">
          <mxGeometry width="50" height="50" relative="1" as="geometry">
            <mxPoint x="680" y="470" as="sourcePoint" />
            <mxPoint x="200" y="540" as="targetPoint" />
          </mxGeometry>
        </mxCell>
      </root>
    </mxGraphModel>
  </diagram>
</mxfile>
